# xmcd CD database file
#
# Track frame offsets:
#	150
#	17420
#	38130
#	71440
#	94010
#	113187
#	132702
#	154875
#	174197
#	196765
#	220582
#	256730
#
# Disc length: 3440 seconds
#
# Revision: 0
# Processed by: cddbd v1.5.1PL0 Copyright (c) Steve Scherf et al.
# Submitted via: CDex 1.51
#
DISCID=960d6e0c
DTITLE=Crossroads Blues Band - Live at Wonderful's
DYEAR=2003
DGENRE=Blues
TTITLE0=Hey Baby
TTITLE1=Under Cover
TTITLE2=Bad Dog Blues
TTITLE3=Goin' to New Orleans
TTITLE4=My Queen (Queenie)
TTITLE5=The Blues is User Friendly
TTITLE6=Gator Stomp
TTITLE7=Beginning of the End
TTITLE8=Party down Below
TTITLE9=Dog Without a Bone
TTITLE10=Funky Basement
TTITLE11=All Drink Track
EXTD=YEAR: 2003
EXTT0=
EXTT1=
EXTT2=
EXTT3=
EXTT4=
EXTT5=
EXTT6=
EXTT7=
EXTT8=
EXTT9=
EXTT10=
EXTT11=
PLAYORDER=
